<!-- <?xml version="1.0" standalone="no"?> -->
<svg viewBox="0 0 200 200" xmlns="http://www.w3.org/2000/svg">
  <path fill="currentColor" d="M45.3,-79.9C58.1,-71.2,67.2,-57.6,75.4,-43.5C83.5,-29.4,90.6,-14.7,91.9,0.7C93.2,16.2,88.6,32.3,80.1,45.7C71.5,59.1,58.9,69.8,44.9,76.8C30.9,83.9,15.5,87.5,-0.3,88C-16.1,88.6,-32.2,86.1,-45.2,78.4C-58.3,70.8,-68.3,58,-76.9,44.1C-85.4,30.2,-92.4,15.1,-93,-0.3C-93.6,-15.8,-87.8,-31.6,-78.7,-44.4C-69.5,-57.3,-57,-67.3,-43.4,-75.4C-29.7,-83.5,-14.9,-89.9,0.7,-91.1C16.3,-92.4,32.6,-88.5,45.3,-79.9Z" transform="translate(100 100)" />
</svg>
