<!-- <?xml version="1.0" standalone="no"?> -->
<svg preserveAspectRatio="none" width="100%" height="100%" viewBox="0 0 200 200" xmlns="http://www.w3.org/2000/svg">
  <path fill="#000000" d="M33.1,-53.8C46.1,-43.1,62,-39.4,71.2,-29.5C80.4,-19.6,82.9,-3.7,82.2,12.9C81.6,29.6,77.8,46.8,66.2,53.7C54.5,60.5,35.1,56.9,18.2,61.7C1.3,66.5,-13,79.7,-24.7,78.8C-36.5,77.8,-45.7,62.7,-56.4,49.4C-67.2,36.1,-79.4,24.6,-84.5,10.2C-89.6,-4.2,-87.5,-21.6,-79.9,-35.8C-72.3,-49.9,-59.2,-60.8,-44.9,-70.8C-30.7,-80.9,-15.3,-90.2,-2.6,-86.1C10,-81.9,20.1,-64.4,33.1,-53.8Z" transform="translate(100 100)" />
</svg>
