<!-- <?xml version="1.0" standalone="no"?> -->
<svg viewBox="0 0 200 200" xmlns="http://www.w3.org/2000/svg">
  <path fill="#000" d="M44.1,-80.1C55,-70,60.4,-54,66.4,-39.7C72.5,-25.3,79.2,-12.7,80.7,0.9C82.1,14.4,78.4,28.7,72,42.4C65.5,56,56.4,68.9,43.9,76.6C31.5,84.3,15.7,86.8,1.5,84.1C-12.7,81.4,-25.3,73.6,-37.1,65.5C-48.9,57.5,-59.9,49.2,-69.4,38.2C-78.9,27.3,-86.9,13.6,-88.8,-1.1C-90.8,-15.9,-86.8,-31.9,-77.5,-43.2C-68.2,-54.5,-53.7,-61.2,-39.9,-69.7C-26.1,-78.2,-13.1,-88.5,1.7,-91.5C16.5,-94.5,33.1,-90.2,44.1,-80.1Z" transform="translate(100 100)" />
</svg>
