<!-- <?xml version="1.0" standalone="no"?> -->
<svg viewBox="0 0 200 200" xmlns="http://www.w3.org/2000/svg">
  <path fill="currentColor" d="M47.5,-82.4C61.9,-74,74,-61.9,81.9,-47.5C89.8,-33.2,93.5,-16.6,92.4,-0.6C91.3,15.3,85.4,30.6,76.8,43.8C68.3,57.1,57.1,68.3,43.8,76.5C30.6,84.8,15.3,90.1,-0.3,90.6C-15.9,91.1,-31.7,86.8,-44.5,78.2C-57.2,69.7,-66.8,56.9,-74.8,43.1C-82.9,29.4,-89.4,14.7,-89.7,-0.2C-90.1,-15.2,-84.4,-30.3,-76.5,-44.2C-68.6,-58.2,-58.4,-70.9,-45.3,-79.9C-32.2,-89,-16.1,-94.3,0.3,-94.8C16.6,-95.2,33.2,-90.7,47.5,-82.4Z" transform="translate(100 100)" />
</svg>
