<!-- <?xml version="1.0" standalone="no"?> -->
<svg viewBox="0 0 200 200" xmlns="http://www.w3.org/2000/svg">
  <path fill="black" d="M47.1,-81.6C61.2,-73.4,72.8,-61.1,77.6,-46.8C82.4,-32.5,80.4,-16.2,80.6,0.1C80.8,16.5,83.2,33,77.6,45.8C72,58.7,58.2,67.9,43.9,75.4C29.7,82.9,14.8,88.7,-0.5,89.6C-15.9,90.5,-31.7,86.4,-43.8,77.7C-55.9,68.9,-64.1,55.3,-72.7,41.6C-81.3,27.9,-90.2,13.9,-91.7,-0.9C-93.2,-15.7,-87.4,-31.4,-77.8,-43.4C-68.2,-55.4,-54.9,-63.7,-41.3,-72.2C-27.7,-80.6,-13.9,-89.2,1.3,-91.5C16.5,-93.7,33,-89.7,47.1,-81.6Z" transform="translate(100 100)" />
</svg>
