<svg xmlns="http://www.w3.org/2000/svg" viewBox="0 0 187.9 189.81">
  <path  d="M425.88,553.79c.36,0,.62-.22,1.11-.68l5.45-5.45a1.5,1.5,0,0,0,.46-1.24V507.74a1.5,1.5,0,0,0-.46-1.24L427,501.05c-.49-.46-.75-.68-1.11-.68s-.62.22-1.11.68l-5.45,5.45a1.46,1.46,0,0,0-.47,1.24v38.68a1.46,1.46,0,0,0,.47,1.24l5.45,5.45C425.26,553.57,425.51,553.79,425.88,553.79Z" transform="translate(-331.93 -500.37)"/>
  <path  d="M414.19,555.47c.35-.1.53-.38.87-1l3.7-6.77a1.51,1.51,0,0,0,.09-1.32L408,509.31a1.5,1.5,0,0,0-.8-1.06l-6.77-3.7c-.6-.3-.9-.44-1.25-.33s-.53.38-.88,1L394.57,512a1.45,1.45,0,0,0-.1,1.32l10.9,37.11a1.4,1.4,0,0,0,.8,1l6.76,3.7C413.53,555.43,413.84,555.57,414.19,555.47Z" transform="translate(-331.93 -500.37)"/>

  <path  d="M403.45,560.38c.3-.2.4-.52.57-1.17l1.63-7.54a1.48,1.48,0,0,0-.28-1.29l-20.91-32.54a1.44,1.44,0,0,0-1.06-.79l-7.54-1.64c-.66-.12-1-.17-1.3,0s-.4.52-.56,1.17l-1.64,7.53a1.5,1.5,0,0,0,.28,1.3L393.55,558a1.44,1.44,0,0,0,1.06.79l7.54,1.65C402.81,560.53,403.14,560.57,403.45,560.38Z" transform="translate(-331.93 -500.37)"/>

  <path  d="M394.52,568.11c.24-.28.24-.61.22-1.28l-.56-7.69a1.44,1.44,0,0,0-.63-1.17l-29.23-25.32a1.47,1.47,0,0,0-1.24-.46l-7.69.54c-.67.08-1,.13-1.24.4s-.24.61-.22,1.28l.56,7.7a1.44,1.44,0,0,0,.63,1.16l29.23,25.32a1.43,1.43,0,0,0,1.24.46l7.69-.54C394,568.43,394.28,568.39,394.52,568.11Z" transform="translate(-331.93 -500.37)"/>
  <path  d="M388.14,578.05c.15-.34.06-.66-.16-1.3l-2.69-7.22a1.5,1.5,0,0,0-.94-.94l-35.18-16.06a1.46,1.46,0,0,0-1.32-.09l-7.23,2.69c-.62.26-.92.4-1.08.73s-.05.65.16,1.29l2.7,7.22a1.46,1.46,0,0,0,.93.94l35.18,16.06a1.51,1.51,0,0,0,1.33.1l7.22-2.7C387.68,578.52,388,578.38,388.14,578.05Z" transform="translate(-331.93 -500.37)"/>

  <path  d="M384.81,589.38c.05-.36-.13-.65-.51-1.2L379.68,582a1.51,1.51,0,0,0-1.17-.64l-38.28-5.49a1.43,1.43,0,0,0-1.29.28l-6.18,4.62c-.52.42-.77.64-.82,1s.12.64.51,1.2l4.62,6.17a1.48,1.48,0,0,0,1.16.63l38.29,5.5a1.46,1.46,0,0,0,1.29-.28l6.17-4.62C384.51,590,384.76,589.74,384.81,589.38Z" transform="translate(-331.93 -500.37)"/>
  <path  d="M384.81,601.19c-.05-.36-.3-.59-.82-1l-6.18-4.61a1.45,1.45,0,0,0-1.29-.29l-38.28,5.51a1.43,1.43,0,0,0-1.16.64l-4.63,6.17c-.38.55-.56.84-.51,1.2s.3.58.83,1l6.17,4.62a1.52,1.52,0,0,0,1.3.28l38.28-5.51a1.47,1.47,0,0,0,1.16-.64l4.62-6.17C384.69,601.83,384.87,601.55,384.81,601.19Z" transform="translate(-331.93 -500.37)"/>
  <path  d="M388.14,612.52c-.15-.33-.45-.48-1.07-.73l-7.23-2.69a1.43,1.43,0,0,0-1.32.09l-35.18,16.07c-.78.36-.88.79-.93.94l-2.7,7.22c-.21.64-.31,1-.15,1.3s.45.47,1.07.73l7.23,2.68a1.43,1.43,0,0,0,1.32-.09L384.36,622c.78-.36.88-.78.93-.94l2.7-7.22C388.2,613.17,388.29,612.85,388.14,612.52Z" transform="translate(-331.93 -500.37)"/>

  <path  d="M394.53,622.45c-.24-.28-.57-.32-1.24-.4l-7.69-.54a1.46,1.46,0,0,0-1.24.46L355.13,647.3a1.47,1.47,0,0,0-.63,1.17l-.55,7.69c0,.67,0,1,.22,1.28s.57.32,1.23.4l7.7.54a1.47,1.47,0,0,0,1.24-.46l29.22-25.33a1.44,1.44,0,0,0,.63-1.17l.56-7.69C394.77,623.06,394.77,622.73,394.53,622.45Z" transform="translate(-331.93 -500.37)"/>

  <path  d="M403.46,630.18c-.31-.2-.64-.15-1.3,0l-7.54,1.64a1.49,1.49,0,0,0-1.06.8l-20.9,32.54a1.48,1.48,0,0,0-.28,1.29L374,674c.16.65.26,1,.57,1.17s.64.15,1.3,0l7.53-1.65a1.44,1.44,0,0,0,1.06-.79l20.9-32.54a1.41,1.41,0,0,0,.28-1.29L404,631.35C403.86,630.7,403.76,630.38,403.46,630.18Z" transform="translate(-331.93 -500.37)"/>
  <path  d="M414.2,635.08c-.35-.1-.66,0-1.26.34l-6.76,3.7a1.45,1.45,0,0,0-.8,1.06L394.5,677.29a1.46,1.46,0,0,0,.09,1.32l3.7,6.77c.34.58.52.86.87,1s.66,0,1.26-.33l6.76-3.7a1.45,1.45,0,0,0,.8-1.06l10.89-37.11a1.45,1.45,0,0,0-.1-1.32l-3.69-6.77C414.73,635.47,414.55,635.19,414.2,635.08Z" transform="translate(-331.93 -500.37)"/>
  <path  d="M425.89,636.76c-.37,0-.62.22-1.11.68l-5.45,5.46a1.43,1.43,0,0,0-.46,1.24v38.67a1.48,1.48,0,0,0,.46,1.24l5.45,5.45c.49.46.75.68,1.11.68s.62-.22,1.11-.68l5.45-5.45a1.46,1.46,0,0,0,.47-1.24V644.13a1.46,1.46,0,0,0-.47-1.24L427,637.44C426.51,637,426.25,636.76,425.89,636.76Z" transform="translate(-331.93 -500.37)"/>
  <path  d="M437.58,635.08c-.35.1-.53.38-.88,1L433,642.81a1.47,1.47,0,0,0-.09,1.32l10.9,37.11a1.48,1.48,0,0,0,.8,1.06l6.77,3.69c.6.3.9.44,1.25.34s.54-.39.88-1l3.69-6.77a1.46,1.46,0,0,0,.09-1.33l-10.9-37.1a1.45,1.45,0,0,0-.8-1.06l-6.77-3.7C438.23,635.11,437.93,635,437.58,635.08Z" transform="translate(-331.93 -500.37)"/>
  <path  d="M448.32,630.17c-.31.2-.4.52-.57,1.17l-1.63,7.54a1.41,1.41,0,0,0,.28,1.29l20.92,32.53a1.47,1.47,0,0,0,1.06.79l7.53,1.64c.66.12,1,.16,1.3,0s.41-.52.57-1.17l1.63-7.54a1.41,1.41,0,0,0-.28-1.29l-20.92-32.53a1.44,1.44,0,0,0-1.06-.79l-7.53-1.64C449,630,448.62,630,448.32,630.17Z" transform="translate(-331.93 -500.37)"/>
  <path  d="M457.24,622.43c-.24.28-.24.61-.21,1.29l.55,7.69a1.47,1.47,0,0,0,.63,1.16l29.24,25.32a1.5,1.5,0,0,0,1.24.46l7.7-.55c.66-.08,1-.12,1.23-.4s.24-.61.22-1.28l-.56-7.69a1.44,1.44,0,0,0-.63-1.17L467.41,622a1.43,1.43,0,0,0-1.24-.46l-7.69.55C457.81,622.11,457.48,622.16,457.24,622.43Z" transform="translate(-331.93 -500.37)"/>

  <path  d="M463.62,612.5c-.15.33-.06.65.16,1.29l2.7,7.22c0,.15.15.58.93.94l35.19,16a1.46,1.46,0,0,0,1.32.09l7.22-2.69c.63-.26.93-.4,1.08-.73s.06-.66-.15-1.29l-2.7-7.23a1.47,1.47,0,0,0-.94-.93l-35.19-16.06a1.47,1.47,0,0,0-1.32-.09l-7.22,2.7C464.08,612,463.77,612.16,463.62,612.5Z" transform="translate(-331.93 -500.37)"/>
  <path  d="M466.94,601.16c-.05.36.13.65.52,1.2l4.62,6.17a1.48,1.48,0,0,0,1.16.63l38.29,5.49a1.46,1.46,0,0,0,1.29-.28l6.17-4.62c.53-.42.78-.65.83-1s-.13-.64-.51-1.19l-4.63-6.17a1.43,1.43,0,0,0-1.16-.64l-38.28-5.49a1.44,1.44,0,0,0-1.29.29l-6.18,4.62C467.25,600.58,467,600.8,466.94,601.16Z" transform="translate(-331.93 -500.37)"/>
  <path  d="M466.94,589.35c.05.36.3.59.83,1l6.17,4.61a1.46,1.46,0,0,0,1.3.28l38.28-5.52a1.48,1.48,0,0,0,1.16-.63l4.62-6.17c.38-.56.56-.84.51-1.2s-.3-.58-.83-1l-6.17-4.62a1.49,1.49,0,0,0-1.3-.28l-38.28,5.52a1.48,1.48,0,0,0-1.16.63l-4.62,6.18C467.07,588.71,466.89,589,466.94,589.35Z" transform="translate(-331.93 -500.37)"/>

  <path  d="M463.61,578c.15.34.45.48,1.07.73l7.23,2.69a1.47,1.47,0,0,0,1.32-.09l35.18-16.08a1.5,1.5,0,0,0,.93-.94L512,557.1c.22-.64.31-1,.16-1.29s-.46-.47-1.08-.73l-7.23-2.69a1.48,1.48,0,0,0-1.32.1l-35.17,16.08c-.78.36-.88.78-.93.94l-2.7,7.22C463.55,577.37,463.46,577.69,463.61,578Z" transform="translate(-331.93 -500.37)"/>
  <path  d="M457.22,568.09c.24.28.57.33,1.24.4l7.69.54a1.47,1.47,0,0,0,1.24-.46l29.22-25.34a1.47,1.47,0,0,0,.63-1.16l.55-7.7c0-.67,0-1-.22-1.28s-.57-.32-1.24-.39l-7.69-.55a1.47,1.47,0,0,0-1.24.46L458.18,558a1.47,1.47,0,0,0-.63,1.16l-.55,7.69C457,567.48,457,567.82,457.22,568.09Z" transform="translate(-331.93 -500.37)"/>
  <path  d="M448.29,560.36c.31.2.64.15,1.3,0l7.53-1.64a1.5,1.5,0,0,0,1.06-.79l20.9-32.55a1.5,1.5,0,0,0,.28-1.3l-1.64-7.53c-.17-.65-.27-1-.57-1.17s-.64-.15-1.3,0L468.31,517a1.44,1.44,0,0,0-1.06.79l-20.89,32.54a1.5,1.5,0,0,0-.28,1.3l1.64,7.53C447.89,559.85,448,560.17,448.29,560.36Z" transform="translate(-331.93 -500.37)"/>
  <path  d="M437.54,555.46c.35.11.66,0,1.26-.33l6.76-3.71c.15-.07.56-.23.8-1.06l10.88-37.11a1.45,1.45,0,0,0-.1-1.32l-3.7-6.77c-.34-.58-.52-.86-.87-1s-.66,0-1.26.34l-6.76,3.7a1.45,1.45,0,0,0-.8,1.06l-10.87,37.11a1.46,1.46,0,0,0,.09,1.32l3.7,6.77C437,555.08,437.2,555.36,437.54,555.46Z" transform="translate(-331.93 -500.37)"/></svg>
