<svg  xmlns="http://www.w3.org/2000/svg" viewBox="0 0 375.94 376.38">
  <path d="M279.92,453.73a26.92,26.92,0,0,0,26.9,26.9h8.05a2,2,0,0,1,1.72.64l7.6,7.59c.63.68.94,1,.94,1.55s-.31.87-.94,1.55l-7.6,7.58a2,2,0,0,1-1.72.65h-8.05a46.51,46.51,0,0,1-46.46-46.46,26.94,26.94,0,0,0-26.91-26.9h-.8l.66-.64,7.59-7.59c.63-.68.94-1,.94-1.54s-.31-.87-.94-1.55l-7.59-7.59-.66-.65h.8A46.52,46.52,0,0,1,279.92,453.73Z" transform="translate(-232.65 -407.27)"/>
  <path d="M563.38,453.73a26.93,26.93,0,0,0,26.91,26.9h8a2,2,0,0,1,1.73.64l7.59,7.59c.63.68.94,1,.94,1.55s-.31.87-.94,1.55l-7.59,7.58a2,2,0,0,1-1.73.65h-8a46.51,46.51,0,0,1-46.47-46.46,26.93,26.93,0,0,0-26.9-26.9h-.81l.66-.64,7.59-7.59c.63-.68.95-1,.95-1.54s-.32-.87-.95-1.55l-7.59-7.59-.66-.65h.81A46.52,46.52,0,0,1,563.38,453.73Z" transform="translate(-232.65 -407.27)"/>
  <path d="M563.38,737.2a26.93,26.93,0,0,0,26.91,26.89h8a2,2,0,0,1,1.73.64l7.59,7.59c.63.68.94,1,.94,1.55s-.31.87-.94,1.55L600.06,783a2,2,0,0,1-1.73.65h-8a46.52,46.52,0,0,1-46.47-46.46,26.93,26.93,0,0,0-26.9-26.9h-.81l.66-.64,7.59-7.59c.63-.68.95-1,.95-1.54s-.32-.87-.95-1.56l-7.59-7.58-.66-.65h.81A46.51,46.51,0,0,1,563.38,737.2Z" transform="translate(-232.65 -407.27)"/>
  <path d="M561.32,595.46a26.92,26.92,0,0,0-26.9-26.89h-8a2,2,0,0,1-1.72-.64l-7.6-7.59c-.63-.68-.94-1-.94-1.55s.31-.87.94-1.55l7.6-7.59a2,2,0,0,1,1.72-.64h8a46.51,46.51,0,0,1,46.46,46.45,26.93,26.93,0,0,0,26.9,26.9h.81l-.66.65-7.59,7.58c-.63.69-1,1-1,1.55s.32.87,1,1.55l7.59,7.58.66.65h-.81A46.51,46.51,0,0,1,561.32,595.46Z" transform="translate(-232.65 -407.27)"/>
  <path d="M419.59,453.73a26.93,26.93,0,0,1-26.9,26.9h-8.05a2,2,0,0,0-1.73.64l-7.59,7.59c-.63.68-.94,1-.94,1.55s.31.87.94,1.55l7.59,7.58a2,2,0,0,0,1.73.65h8.05a46.51,46.51,0,0,0,46.46-46.46,26.93,26.93,0,0,1,26.9-26.9h.81l-.66-.64-7.59-7.59c-.63-.68-.95-1-.95-1.54s.32-.87.95-1.55l7.59-7.59.66-.65h-.81A46.52,46.52,0,0,0,419.59,453.73Z" transform="translate(-232.65 -407.27)"/>
  <path d="M419.59,737.2a26.93,26.93,0,0,1-26.9,26.89h-8.05a2,2,0,0,0-1.73.64l-7.59,7.59c-.63.68-.94,1-.94,1.55s.31.87.94,1.55l7.59,7.59a2,2,0,0,0,1.73.65h8.05a46.52,46.52,0,0,0,46.46-46.46,26.93,26.93,0,0,1,26.9-26.9h.81l-.66-.64-7.59-7.59c-.63-.68-.95-1-.95-1.54s.32-.87.95-1.56l7.59-7.58.66-.65h-.81A46.51,46.51,0,0,0,419.59,737.2Z" transform="translate(-232.65 -407.27)"/>
  <path d="M421.65,595.46a26.93,26.93,0,0,1,26.9-26.89h8.05a2,2,0,0,0,1.72-.64l7.6-7.59c.63-.68.94-1,.94-1.55s-.31-.87-.94-1.55l-7.6-7.59a2,2,0,0,0-1.72-.64h-8.05a46.51,46.51,0,0,0-46.46,46.45,26.93,26.93,0,0,1-26.9,26.9h-.81l.66.65,7.59,7.58c.63.69.95,1,.95,1.55s-.32.87-.95,1.55L375,641.27l-.66.65h.81A46.51,46.51,0,0,0,421.65,595.46Z" transform="translate(-232.65 -407.27)"/>
  <path d="M279.92,737.2a26.92,26.92,0,0,0,26.9,26.89h8.05a2,2,0,0,1,1.72.64l7.6,7.59c.63.68.94,1,.94,1.55s-.31.87-.94,1.55l-7.6,7.59a2,2,0,0,1-1.72.65h-8.05a46.52,46.52,0,0,1-46.46-46.46,26.94,26.94,0,0,0-26.91-26.9h-.8l.66-.64,7.59-7.59c.63-.68.94-1,.94-1.54s-.31-.87-.94-1.56l-7.59-7.58-.66-.65h.8A46.51,46.51,0,0,1,279.92,737.2Z" transform="translate(-232.65 -407.27)"/>
  <path d="M277.86,595.46A26.93,26.93,0,0,0,251,568.57h-8a2,2,0,0,1-1.72-.64l-7.59-7.59c-.63-.68-.94-1-.94-1.55s.31-.87.94-1.55l7.59-7.59a2,2,0,0,1,1.72-.64h8a46.51,46.51,0,0,1,46.47,46.45,26.93,26.93,0,0,0,26.9,26.9h.81l-.66.65-7.59,7.58c-.63.69-.95,1-.95,1.55s.32.87.95,1.55l7.59,7.58.66.65h-.81A46.51,46.51,0,0,1,277.86,595.46Z" transform="translate(-232.65 -407.27)"/>
</svg>
