<svg xmlns="http://www.w3.org/2000/svg" viewBox="0 0 283.46 850.39"><path  d="M491.49,312a70.87,70.87,0,1,1,0-141.73Z" transform="translate(-278.89 -170.27)"/><path  d="M491.49,312a70.87,70.87,0,0,1,0,141.73Z" transform="translate(-278.89 -170.27)"/><path  d="M491.49,595.46a70.87,70.87,0,1,1,0-141.73Z" transform="translate(-278.89 -170.27)"/><path  d="M491.49,595.46a70.87,70.87,0,0,1,0,141.74Z" transform="translate(-278.89 -170.27)"/><path  d="M491.49,878.93a70.87,70.87,0,1,1,0-141.73Z" transform="translate(-278.89 -170.27)"/><path  d="M491.49,878.93a70.87,70.87,0,0,1,0,141.73Z" transform="translate(-278.89 -170.27)"/><path  d="M349.75,312a70.87,70.87,0,0,1,0-141.73Z" transform="translate(-278.89 -170.27)"/><path  d="M349.75,312a70.87,70.87,0,1,1,0,141.73Z" transform="translate(-278.89 -170.27)"/><path  d="M349.75,595.46a70.87,70.87,0,0,1,0-141.73Z" transform="translate(-278.89 -170.27)"/><path  d="M349.75,595.46a70.87,70.87,0,0,1,0,141.74Z" transform="translate(-278.89 -170.27)"/><path  d="M349.75,878.93a70.87,70.87,0,0,1,0-141.73Z" transform="translate(-278.89 -170.27)"/><path  d="M349.75,878.93a70.87,70.87,0,1,1,0,141.73Z" transform="translate(-278.89 -170.27)"/></svg>
