<svg xmlns="http://www.w3.org/2000/svg" viewBox="0 0 425.2 425.2"><path  d="M498.57,234.05a70.87,70.87,0,0,1,0-141.73Z" transform="translate(-285.97 -92.32)"/><path  d="M498.57,234.05a70.87,70.87,0,1,1,0,141.73Z" transform="translate(-285.97 -92.32)"/><path  d="M498.57,517.51a70.87,70.87,0,0,1,0-141.73Z" transform="translate(-285.97 -92.32)"/><path  d="M640.3,234.05a70.87,70.87,0,0,1,0-141.73Z" transform="translate(-285.97 -92.32)"/><path  d="M640.3,234.05a70.87,70.87,0,1,1,0,141.73Z" transform="translate(-285.97 -92.32)"/><path  d="M640.3,517.51a70.87,70.87,0,0,1,0-141.73Z" transform="translate(-285.97 -92.32)"/><path  d="M356.84,234.05a70.87,70.87,0,1,1,0-141.73Z" transform="translate(-285.97 -92.32)"/><path  d="M356.84,234.05a70.87,70.87,0,1,1,0,141.73Z" transform="translate(-285.97 -92.32)"/><path  d="M356.84,517.51a70.87,70.87,0,1,1,0-141.73Z" transform="translate(-285.97 -92.32)"/></svg>
