<svg xmlns="http://www.w3.org/2000/svg" viewBox="0 0 351.32 319.37">
  <path d="M454.12,436.21c.36.36.4.83.43,1.76V448.7a2,2,0,0,1-.76,1.68l-20.56,20.54a2,2,0,0,1-1.68.76H420.81c-.94,0-1.4-.07-1.76-.43s-.4-.82-.43-1.76V458.76a2,2,0,0,1,.76-1.68L440,436.54a2,2,0,0,1,1.68-.76h10.74C453.3,435.82,453.77,435.85,454.12,436.21Z" transform="translate(-244.96 -435.78)"/><path  d="M387.12,436.21c-.36.36-.4.83-.43,1.76V448.7a2,2,0,0,0,.76,1.68L408,470.92a2,2,0,0,0,1.68.76h10.73c.94,0,1.41-.07,1.76-.43s.4-.82.43-1.76V458.76a2,2,0,0,0-.76-1.68l-20.56-20.54a2,2,0,0,0-1.68-.76H388.88C387.94,435.82,387.47,435.85,387.12,436.21Z" transform="translate(-244.96 -435.78)"/><path  d="M454.12,719.68c.36.35.4.82.43,1.76v10.73a2,2,0,0,1-.76,1.68l-20.56,20.53a2,2,0,0,1-1.68.77H420.81c-.94,0-1.4-.07-1.76-.43s-.4-.83-.43-1.76V742.23a2,2,0,0,1,.76-1.68L440,720a2,2,0,0,1,1.68-.76h10.74C453.3,719.28,453.77,719.32,454.12,719.68Z" transform="translate(-244.96 -435.78)"/><path  d="M387.12,719.68c-.36.35-.4.82-.43,1.76v10.73a2,2,0,0,0,.76,1.68L408,754.38a2,2,0,0,0,1.68.77h10.73c.94,0,1.41-.07,1.76-.43s.4-.83.43-1.76V742.23a2,2,0,0,0-.76-1.68L401.29,720a2,2,0,0,0-1.68-.76H388.88C387.94,719.28,387.47,719.32,387.12,719.68Z" transform="translate(-244.96 -435.78)"/><path  d="M387.12,613c-.36-.36-.4-.83-.43-1.76V600.49a2,2,0,0,1,.76-1.67L408,578.28a2,2,0,0,1,1.68-.76h10.73c.94,0,1.41.06,1.76.42s.4.83.43,1.76v10.74a2,2,0,0,1-.76,1.67l-20.56,20.54a2,2,0,0,1-1.68.76H388.88C387.94,613.38,387.47,613.34,387.12,613Z" transform="translate(-244.96 -435.78)"/><path  d="M454.12,613c.36-.36.4-.83.43-1.76V600.49a2,2,0,0,0-.76-1.67l-20.56-20.54a2,2,0,0,0-1.68-.76H420.81c-.94,0-1.4.06-1.76.42s-.4.83-.43,1.76v10.74a2,2,0,0,0,.76,1.67L440,612.65a2,2,0,0,0,1.68.76h10.74C453.3,613.38,453.77,613.34,454.12,613Z" transform="translate(-244.96 -435.78)"/><path  d="M312.39,471.25c.36-.35.4-.82.43-1.76V458.76a2,2,0,0,0-.77-1.68l-20.55-20.54a2,2,0,0,0-1.68-.76H279.07c-.93,0-1.4.07-1.75.43s-.4.83-.43,1.76V448.7a2,2,0,0,0,.76,1.68l20.56,20.54a2,2,0,0,0,1.68.76h10.73C311.57,471.65,312,471.61,312.39,471.25Z" transform="translate(-244.96 -435.78)"/><path  d="M245.38,471.25c-.35-.35-.39-.82-.42-1.76V458.76a2,2,0,0,1,.76-1.68l20.56-20.54a2,2,0,0,1,1.68-.76H278.7c.94,0,1.4.07,1.76.43s.4.83.43,1.76V448.7a2,2,0,0,1-.77,1.68l-20.56,20.54a2,2,0,0,1-1.67.76H247.14C246.21,471.65,245.74,471.61,245.38,471.25Z" transform="translate(-244.96 -435.78)"/><path  d="M312.39,754.72c.36-.36.4-.83.43-1.76V742.23a2,2,0,0,0-.77-1.68L291.49,720a2,2,0,0,0-1.68-.76H279.07c-.93,0-1.4.07-1.75.43s-.4.82-.43,1.76v10.73a2,2,0,0,0,.76,1.68l20.56,20.53a2,2,0,0,0,1.68.77h10.73C311.57,755.11,312,755.08,312.39,754.72Z" transform="translate(-244.96 -435.78)"/><path  d="M245.38,754.72c-.35-.36-.39-.83-.42-1.76V742.23a2,2,0,0,1,.76-1.68L266.29,720a2,2,0,0,1,1.68-.76H278.7c.94,0,1.4.07,1.76.43s.4.82.43,1.76v10.73a2,2,0,0,1-.77,1.68l-20.56,20.53a2,2,0,0,1-1.67.77H247.14C246.21,755.11,245.74,755.08,245.38,754.72Z" transform="translate(-244.96 -435.78)"/><path  d="M245.38,577.94c-.35.36-.39.83-.42,1.76v10.74a2,2,0,0,0,.76,1.67l20.56,20.54a2,2,0,0,0,1.68.76H278.7c.94,0,1.4-.07,1.76-.42s.4-.83.43-1.76V600.49a2,2,0,0,0-.77-1.67l-20.56-20.54a2,2,0,0,0-1.67-.76H247.14C246.21,577.55,245.74,577.58,245.38,577.94Z" transform="translate(-244.96 -435.78)"/><path  d="M312.39,577.94c.36.36.4.83.43,1.76v10.74a2,2,0,0,1-.77,1.67l-20.55,20.54a2,2,0,0,1-1.68.76H279.07c-.93,0-1.4-.07-1.75-.42s-.4-.83-.43-1.76V600.49a2,2,0,0,1,.76-1.67l20.56-20.54a2,2,0,0,1,1.68-.76h10.73C311.57,577.55,312,577.58,312.39,577.94Z" transform="translate(-244.96 -435.78)"/><path  d="M595.86,471.25c.35-.35.39-.82.42-1.76V458.76a2,2,0,0,0-.76-1.68L575,436.54a2,2,0,0,0-1.68-.76H562.54c-.94,0-1.4.07-1.76.43s-.4.83-.43,1.76V448.7a2,2,0,0,0,.77,1.68l20.55,20.54a2,2,0,0,0,1.68.76H594.1C595,471.65,595.5,471.61,595.86,471.25Z" transform="translate(-244.96 -435.78)"/><path  d="M528.85,471.25c-.36-.35-.4-.82-.43-1.76V458.76a2,2,0,0,1,.76-1.68l20.56-20.54a2,2,0,0,1,1.68-.76h10.74c.93,0,1.4.07,1.75.43s.4.83.43,1.76V448.7a2,2,0,0,1-.76,1.68L543,470.92a2,2,0,0,1-1.68.76H530.61C529.67,471.65,529.21,471.61,528.85,471.25Z" transform="translate(-244.96 -435.78)"/><path  d="M595.86,754.72c.35-.36.39-.83.42-1.76V742.23a2,2,0,0,0-.76-1.68L575,720a2,2,0,0,0-1.68-.76H562.54c-.94,0-1.4.07-1.76.43s-.4.82-.43,1.76v10.73a2,2,0,0,0,.77,1.68l20.55,20.53a2,2,0,0,0,1.68.77H594.1C595,755.11,595.5,755.08,595.86,754.72Z" transform="translate(-244.96 -435.78)"/><path  d="M528.85,754.72c-.36-.36-.4-.83-.43-1.76V742.23a2,2,0,0,1,.76-1.68L549.75,720a2,2,0,0,1,1.68-.76h10.74c.93,0,1.4.07,1.75.43s.4.82.43,1.76v10.73a2,2,0,0,1-.76,1.68L543,754.38a2,2,0,0,1-1.68.77H530.61C529.67,755.11,529.21,755.08,528.85,754.72Z" transform="translate(-244.96 -435.78)"/><path  d="M528.85,577.94c-.36.36-.4.83-.43,1.76v10.74a2,2,0,0,0,.76,1.67l20.56,20.54a2,2,0,0,0,1.68.76h10.74c.93,0,1.4-.07,1.75-.42s.4-.83.43-1.76V600.49a2,2,0,0,0-.76-1.67L543,578.28a2,2,0,0,0-1.68-.76H530.61C529.67,577.55,529.21,577.58,528.85,577.94Z" transform="translate(-244.96 -435.78)"/><path  d="M595.86,577.94c.35.36.39.83.42,1.76v10.74a2,2,0,0,1-.76,1.67L575,612.65a2,2,0,0,1-1.68.76H562.54c-.94,0-1.4-.07-1.76-.42s-.4-.83-.43-1.76V600.49a2,2,0,0,1,.77-1.67l20.55-20.54a2,2,0,0,1,1.68-.76H594.1C595,577.55,595.5,577.58,595.86,577.94Z" transform="translate(-244.96 -435.78)"/>
</svg>
