<svg width="68" height="36" viewBox="0 0 68 36" fill="none" xmlns="http://www.w3.org/2000/svg">
<g>
  <path d="M0.432438 35.4829C0.0724384 35.1229 0.0424457 34.6529 0.00244573 33.7229V22.9829C-0.0133335 22.6641 0.0474139 22.3461 0.179631 22.0556C0.311848 21.7651 0.511672 21.5105 0.762425 21.3129L21.3225 0.772904C21.521 0.520726 21.7772 0.320038 22.0696 0.18776C22.362 0.0554813 22.682 -0.00445141 23.0024 0.0129552H33.7324C34.6724 0.0129552 35.1324 0.0729381 35.4924 0.432938C35.8524 0.792938 35.8824 1.26295 35.9224 2.19295V12.9329C35.933 13.252 35.8689 13.5691 35.7352 13.8591C35.6015 14.149 35.402 14.4037 35.1524 14.6029L14.5924 35.1429C14.3939 35.3951 14.1377 35.5958 13.8453 35.7281C13.5528 35.8604 13.2329 35.9203 12.9124 35.9029H2.17243C1.24243 35.8629 0.772438 35.8229 0.432438 35.4829Z" fill="currentColor"/>
  <path d="M67.4324 35.4829C67.7924 35.1229 67.8224 34.6529 67.8624 33.7229V22.9729C67.873 22.6538 67.8089 22.3367 67.6752 22.0468C67.5415 21.7568 67.3419 21.5021 67.0924 21.3029L46.5324 0.762955C46.3339 0.510778 46.0777 0.310029 45.7853 0.17775C45.4928 0.0454716 45.1729 -0.0144612 44.8525 0.0029454H34.1025C33.1725 0.0029454 32.7024 0.0629283 32.3424 0.422928C31.9824 0.782928 31.9524 1.25294 31.9224 2.18294V12.9229C31.9066 13.2417 31.9674 13.5597 32.0996 13.8502C32.2319 14.1408 32.4317 14.3954 32.6824 14.5929L53.2424 35.1329C53.4409 35.3851 53.6972 35.5858 53.9896 35.7181C54.282 35.8504 54.602 35.9103 54.9224 35.8929H65.6524C66.6024 35.8629 67.0624 35.8229 67.4324 35.4829Z" fill="currentColor"/>
</g>
</svg>
