<svg xmlns="http://www.w3.org/2000/svg" viewBox="0 0 283.46 425.2">
  <path class="" d="M393.6,639.27c.9-.9,1-2.06,1.07-4.4l0-26.83c0-.57.2-2.1-1.91-4.2l-51.4-51.34c-2.1-2.11-3.62-1.91-4.19-1.91H310.3c-2.33.08-3.5.17-4.39,1.07s-1,2.06-1.07,4.4l0,26.83c0,.57-.2,2.09,1.91,4.2l51.39,51.34c2.11,2.11,3.63,1.91,4.2,1.91H389.2C391.54,640.26,392.7,640.16,393.6,639.27Z" transform="translate(-278.89 -382.87)"/>
  <path class="" d="M393.6,693.39c.9.9,1,2.06,1.07,4.4l0,26.84c0,.57.2,2.09-1.91,4.19l-51.4,51.35c-2.1,2.1-3.62,1.9-4.19,1.9H310.3c-2.33-.08-3.5-.17-4.39-1.07s-1-2.06-1.07-4.4l0-26.83c0-.57-.2-2.09,1.91-4.19l51.39-51.35c2.11-2.1,3.63-1.91,4.2-1.91H389.2C391.54,692.41,392.7,692.5,393.6,693.39Z" transform="translate(-278.89 -382.87)"/>
  <path class="" d="M393.6,409.93c.9.9,1,2.06,1.07,4.4l0,26.83c0,.57.2,2.09-1.91,4.19l-51.4,51.35c-2.1,2.1-3.62,1.91-4.19,1.91H310.3c-2.33-.09-3.5-.18-4.39-1.07s-1-2.07-1.07-4.4l0-26.84c0-.57-.2-2.09,1.91-4.19l51.39-51.35c2.11-2.1,3.63-1.9,4.2-1.9H389.2C391.54,408.94,392.7,409,393.6,409.93Z" transform="translate(-278.89 -382.87)"/>
  <path class="" d="M535.33,639.27c.9-.9,1-2.06,1.07-4.4l0-26.83c0-.57.2-2.1-1.91-4.2l-51.4-51.34c-2.1-2.11-3.62-1.91-4.19-1.91H452c-2.34.08-3.51.17-4.4,1.07s-1,2.06-1.07,4.4l0,26.83c0,.57-.2,2.09,1.91,4.2l51.4,51.34c2.1,2.11,3.62,1.91,4.19,1.91h26.83C533.27,640.26,534.44,640.16,535.33,639.27Z" transform="translate(-278.89 -382.87)"/>
  <path class="" d="M535.33,693.39c.9.9,1,2.06,1.07,4.4l0,26.84c0,.57.2,2.09-1.91,4.19l-51.4,51.35c-2.1,2.1-3.62,1.9-4.19,1.9H452c-2.34-.08-3.51-.17-4.4-1.07s-1-2.06-1.07-4.4l0-26.83c0-.57-.2-2.09,1.91-4.19l51.4-51.35c2.1-2.1,3.62-1.91,4.19-1.91h26.83C533.27,692.41,534.44,692.5,535.33,693.39Z" transform="translate(-278.89 -382.87)"/>
  <path class="" d="M535.33,409.93c.9.9,1,2.06,1.07,4.4l0,26.83c0,.57.2,2.09-1.91,4.19l-51.4,51.35c-2.1,2.1-3.62,1.91-4.19,1.91H452c-2.34-.09-3.51-.18-4.4-1.07s-1-2.07-1.07-4.4l0-26.84c0-.57-.2-2.09,1.91-4.19l51.4-51.35c2.1-2.1,3.62-1.9,4.19-1.9h26.83C533.27,408.94,534.44,409,535.33,409.93Z" transform="translate(-278.89 -382.87)"/>
</svg>
